<svg width="22" height="22" viewBox="0 0 22 22" fill="none" xmlns="http://www.w3.org/2000/svg">
<g clip-path="url(#clip0_20_268)">
<path fill-rule="evenodd" clip-rule="evenodd" d="M17.9425 3.06749C16.9738 2.09159 15.8208 1.31786 14.5506 0.791236C13.2804 0.26461 11.9182 -0.00442383 10.5432 -0.000241902C4.77883 -0.000241902 0.0875244 4.69194 0.0875244 10.4598C0.0874128 12.2954 0.570384 14.0987 1.48791 15.6885L0 21.1098L5.54554 19.6542C7.07823 20.4898 8.79578 20.9282 10.5414 20.9295C12.6109 20.9299 14.6339 20.3166 16.3548 19.1672C18.0757 18.0178 19.417 16.3839 20.2093 14.4721C21.0015 12.5603 21.209 10.4566 20.8055 8.42686C20.402 6.39715 19.4057 4.53267 17.9425 3.06924V3.06749ZM10.5467 19.1676C8.98829 19.1669 7.45882 18.7466 6.11883 17.951L5.80024 17.7611L2.50932 18.6232L3.38457 15.4154L3.17888 15.0863C2.03836 13.2754 1.60556 11.1076 1.9633 8.99756C2.32103 6.88753 3.44418 4.98348 5.11786 3.64969C6.79154 2.31591 8.89823 1.64604 11.0349 1.76825C13.1715 1.89046 15.1881 2.79616 16.6988 4.31208C17.9156 5.52915 18.7442 7.07968 19.0799 8.76763C19.4156 10.4556 19.2432 12.2052 18.5847 13.7952C17.9261 15.3852 16.8109 16.7443 15.38 17.7005C13.9491 18.6568 12.2668 19.1673 10.5458 19.1676H10.5467ZM15.3168 12.6505C15.0542 12.5184 13.7702 11.8882 13.5321 11.8007C13.2941 11.7131 13.119 11.6685 12.9414 11.9328C12.7637 12.1972 12.2657 12.7827 12.1134 12.9586C11.9611 13.1345 11.8079 13.1573 11.5488 13.0251C11.2898 12.893 10.4434 12.6173 9.44825 11.7263C8.87516 11.1976 8.3827 10.5878 7.9866 9.91627C7.83343 9.6537 7.96997 9.51278 8.10301 9.385C8.23604 9.25721 8.36558 9.08041 8.49424 8.92724C8.60304 8.79524 8.69154 8.64774 8.75681 8.48962C8.79155 8.41757 8.80782 8.338 8.80415 8.25809C8.80048 8.17818 8.777 8.10044 8.73581 8.03187C8.66491 7.90058 8.13977 6.61398 7.92971 6.0897C7.71965 5.56543 7.50171 5.65208 7.34067 5.63983C7.17962 5.62758 7.0142 5.63195 6.84178 5.63195C6.70885 5.63507 6.57801 5.66568 6.4575 5.72187C6.33699 5.77806 6.22943 5.8586 6.14158 5.95842C5.90614 6.21837 5.22958 6.85292 5.22958 8.13953C5.22958 9.42613 6.16522 10.6672 6.2965 10.844C6.42779 11.0208 8.13977 13.6597 10.7655 14.7914C11.3887 15.0592 11.8753 15.2202 12.2534 15.3445C12.7866 15.5053 13.3498 15.5404 13.8989 15.4469C14.4013 15.3734 15.4445 14.8159 15.6642 14.2058C15.8839 13.5958 15.883 13.068 15.8174 12.9639C15.7518 12.8597 15.582 12.7836 15.3185 12.6497L15.3168 12.6505Z" fill="white"/>
</g>
<defs>
<clipPath id="clip0_20_268">
<rect width="21.0058" height="21.11" fill="white"/>
</clipPath>
</defs>
</svg>
